STARTFONT 2.1
FONT -gbdfed-Unknown-Medium-R-Normal--12-120-72-72-C-60-iso10646-1
SIZE 12 72 72
FONTBOUNDINGBOX 6 12 0 -3
STARTPROPERTIES 17
POINT_SIZE 120
PIXEL_SIZE 12
RESOLUTION_X 72
RESOLUTION_Y 72
FONT_ASCENT 10
FONT_DESCENT 2
AVERAGE_WIDTH 60
SPACING "C"
FOUNDRY "gbdfed"
FAMILY_NAME "Unknown"
WEIGHT_NAME "Medium"
SLANT "R"
SETWIDTH_NAME "Normal"
ADD_STYLE_NAME ""
CHARSET_REGISTRY "iso10646"
CHARSET_ENCODING "1"
_GBDFED_INFO "Edited with gbdfed 1.6."
ENDPROPERTIES
CHARS 23
STARTCHAR char0960
ENCODING 960
SWIDTH 500 0
DWIDTH 6 0
BBX 6 12 0 -3
BITMAP
00
00
00
FC
48
48
48
48
48
00
00
00
ENDCHAR
STARTCHAR char8229
ENCODING 8229
SWIDTH 500 0
DWIDTH 6 0
BBX 6 12 0 -3
BITMAP
00
00
00
00
00
00
00
00
50
00
00
00
ENDCHAR
STARTCHAR char8230
ENCODING 8230
SWIDTH 500 0
DWIDTH 6 0
BBX 6 12 0 -3
BITMAP
00
00
00
00
00
00
00
00
A8
00
00
00
ENDCHAR
STARTCHAR char8592
ENCODING 8592
SWIDTH 500 0
DWIDTH 6 0
BBX 6 12 0 -3
BITMAP
00
00
00
20
60
FC
60
20
00
00
00
00
ENDCHAR
STARTCHAR U+2192
ENCODING 8594
SWIDTH 500 0
DWIDTH 6 0
BBX 6 12 0 -3
BITMAP
00
00
00
10
18
FC
18
10
00
00
00
00
ENDCHAR
STARTCHAR char8658
ENCODING 8658
SWIDTH 500 0
DWIDTH 6 0
BBX 6 12 0 -3
BITMAP
00
00
10
F8
04
04
F8
10
00
00
00
00
ENDCHAR
STARTCHAR char8704
ENCODING 8704
SWIDTH 500 0
DWIDTH 6 0
BBX 6 12 0 -3
BITMAP
84
84
CC
B4
CC
48
48
48
30
30
00
00
ENDCHAR
STARTCHAR char8719
ENCODING 8719
SWIDTH 500 0
DWIDTH 6 0
BBX 6 12 0 -3
BITMAP
FC
48
48
48
48
48
48
48
DC
00
00
00
ENDCHAR
STARTCHAR char8721
ENCODING 8721
SWIDTH 500 0
DWIDTH 6 0
BBX 6 12 0 -3
BITMAP
FC
C8
40
60
20
60
40
C8
FC
00
00
00
ENDCHAR
STARTCHAR char8728
ENCODING 8728
SWIDTH 500 0
DWIDTH 6 0
BBX 6 12 0 -3
BITMAP
00
00
00
00
30
48
48
30
00
00
00
00
ENDCHAR
STARTCHAR char8759
ENCODING 8759
SWIDTH 500 0
DWIDTH 6 0
BBX 6 12 0 -3
BITMAP
00
00
48
48
00
00
48
48
00
00
00
00
ENDCHAR
STARTCHAR char8800
ENCODING 8800
SWIDTH 500 0
DWIDTH 6 0
BBX 6 12 0 -3
BITMAP
00
04
FC
08
10
FC
20
40
FC
80
00
00
ENDCHAR
STARTCHAR char8801
ENCODING 8801
SWIDTH 500 0
DWIDTH 6 0
BBX 6 12 0 -3
BITMAP
00
00
FC
00
00
FC
00
00
FC
00
00
00
ENDCHAR
STARTCHAR char8869
ENCODING 8869
SWIDTH 500 0
DWIDTH 6 0
BBX 6 12 0 -3
BITMAP
00
00
20
20
20
20
20
20
FC
00
00
00
ENDCHAR
STARTCHAR char9472
ENCODING 9472
SWIDTH 500 0
DWIDTH 6 0
BBX 6 12 0 -3
BITMAP
00
00
00
00
FC
FC
00
00
00
00
00
00
ENDCHAR
STARTCHAR char9654
ENCODING 9654
SWIDTH 500 0
DWIDTH 6 0
BBX 6 12 0 -3
BITMAP
00
20
10
18
FC
18
10
20
00
00
00
00
ENDCHAR
STARTCHAR char9656
ENCODING 9656
SWIDTH 500 0
DWIDTH 6 0
BBX 6 12 0 -3
BITMAP
00
40
60
70
78
70
60
40
00
00
00
00
ENDCHAR
STARTCHAR char10004
ENCODING 10004
SWIDTH 500 0
DWIDTH 6 0
BBX 6 12 0 -3
BITMAP
00
00
00
04
0C
98
F0
60
00
00
00
00
ENDCHAR
STARTCHAR char10010
ENCODING 10010
SWIDTH 500 0
DWIDTH 6 0
BBX 6 12 0 -3
BITMAP
00
00
00
30
30
FC
FC
30
30
00
00
00
ENDCHAR
STARTCHAR char10041
ENCODING 10041
SWIDTH 500 0
DWIDTH 6 0
BBX 6 12 0 -3
BITMAP
00
00
10
30
F8
7C
30
20
00
00
00
00
ENDCHAR
STARTCHAR char10190
ENCODING 10190
SWIDTH 500 0
DWIDTH 6 0
BBX 6 12 0 -3
BITMAP
00
00
00
00
FC
00
FC
00
00
00
00
00
ENDCHAR
STARTCHAR U+2982
ENCODING 10626
SWIDTH 500 0
DWIDTH 6 0
BBX 6 12 0 -3
BITMAP
00
30
48
48
30
30
48
48
30
00
00
00
ENDCHAR
STARTCHAR char10746
ENCODING 10746
SWIDTH 500 0
DWIDTH 6 0
BBX 6 12 0 -3
BITMAP
00
00
48
48
48
FC
48
48
48
00
00
00
ENDCHAR
ENDFONT
